Coordinates
version=1
nRows=6
nColumns=55
inDegrees=yes

Units are S.I. units (second, meters, Newtons, ...)
If the header above contains a line with 'inDegrees', this indicates whether rotational values are in degrees (yes) or radians (no).

endheader
time	pelvis_tilt	pelvis_list	pelvis_rotation	pelvis_tx	pelvis_ty	pelvis_tz	hip_flexion_r	hip_adduction_r	hip_rotation_r	knee_angle_r	knee_angle_r_beta	ankle_angle_r	subtalar_angle_r	mtp_angle_r	hip_flexion_l	hip_adduction_l	hip_rotation_l	knee_angle_l	knee_angle_l_beta	ankle_angle_l	subtalar_angle_l	mtp_angle_l	lumbar_extension	lumbar_bending	lumbar_rotation	torso_tx	torso_ty	torso_tz	arm_flex_r	arm_add_r	arm_rot_r	shoulder_rx	shoulder_ry	shoulder_rz	elbow_flex_r	pro_sup_r	wrist_flex_r	wrist_dev_r	arm_flex_l	arm_add_l	arm_rot_l	shoulder_lx	shoulder_ly	shoulder_lz	elbow_flex_l	pro_sup_l	wrist_flex_l	wrist_dev_l	neck_extension	neck_bending	neck_rotation	head_tx	head_ty	head_tz
      0.01000000	      4.33062895	      0.88138349	     -3.02531884	      0.70475235	      1.04912565	     -0.19940020	     -8.95262527	    -13.43865611	     -3.72348616	     -5.10544612	     -0.08910684	      3.30426182	     15.06055918	      0.33230814	     -8.45648840	     -9.79146909	     -9.40759748	     -1.66619538	     -0.02908060	      2.05911962	      7.19254541	      0.64107821	     -3.43273239	     -2.77764060	      3.38277056	      0.06754409	      0.01200204	     -0.00789513	    -10.99228903	    -10.62112063	     15.56193521	     -0.02429997	     -0.03883957	     -0.01823171	     26.15709142	      4.67706152	      4.86768617	     -4.74138421	     -6.68661885	    -12.30200496	     14.61594018	     -0.01005077	     -0.04496713	      0.01746389	     28.35564817	      6.72172066	      5.34122838	     -5.15407019	     21.80988346	     -0.46905736	     -5.54634256	      0.01850193	      0.02727793	     -0.00082756
      0.02000000	      4.33111806	      0.87971879	     -3.02518342	      0.70496892	      1.04904283	     -0.19935652	     -8.95309868	    -13.43726549	     -3.72506324	     -5.10467169	     -0.08909333	      3.30445675	     15.06055440	      0.33234091	     -8.45675061	     -9.79110260	     -9.40881929	     -1.66621166	     -0.02908088	      2.05963672	      7.19302870	      0.64111348	     -3.43284460	     -2.77909372	      3.38291567	      0.06766428	      0.01193008	     -0.00788921	    -10.99120101	    -10.62201817	     15.56303010	     -0.02425244	     -0.03885777	     -0.01813488	     26.15649616	      4.67742691	      4.86739228	     -4.74206303	     -6.68414839	    -12.30226986	     14.61696298	     -0.00999638	     -0.04502448	      0.01742791	     28.35560283	      6.72226797	      5.34098707	     -5.15478060	     21.80923060	     -0.46927224	     -5.54631396	      0.01849842	      0.02729113	     -0.00083094
      0.03000000	      4.33111806	      0.87971879	     -3.02518342	      0.70496892	      1.04904283	     -0.19935652	     -8.95309868	    -13.43726549	     -3.72506324	     -5.10467169	     -0.08909333	      3.30445675	     15.06055440	      0.33234091	     -8.45675061	     -9.79110260	     -9.40881929	     -1.66621166	     -0.02908088	      2.05963672	      7.19302870	      0.64111348	     -3.43284460	     -2.77909372	      3.38291567	      0.06766428	      0.01193008	     -0.00788921	    -10.99120101	    -10.62201817	     15.56303010	     -0.02425244	     -0.03885777	     -0.01813488	     26.15649616	      4.67742691	      4.86739228	     -4.74206303	     -6.68414839	    -12.30226986	     14.61696298	     -0.00999638	     -0.04502448	      0.01742791	     28.35560283	      6.72226797	      5.34098707	     -5.15478060	     21.80923060	     -0.46927224	     -5.54631396	      0.01849842	      0.02729113	     -0.00083094
      0.04000000	      4.32838862	      0.87951054	     -3.02539982	      0.70519158	      1.04898976	     -0.19930915	     -8.95550320	    -13.43465390	     -3.72633851	     -5.10329775	     -0.08906935	      3.30452597	     15.06072134	      0.33238234	     -8.45815669	     -9.79101246	     -9.41007078	     -1.66588871	     -0.02907524	      2.06014085	      7.19340171	      0.64115062	     -3.43326364	     -2.78093628	      3.38297896	      0.06777166	      0.01185044	     -0.00786659	    -10.99052859	    -10.62302569	     15.56409609	     -0.02421978	     -0.03886891	     -0.01802975	     26.15580067	      4.67778136	      4.86708906	     -4.74275263	     -6.68202097	    -12.30266449	     14.61795918	     -0.00995003	     -0.04511695	      0.01737765	     28.35533448	      6.72281244	      5.34072140	     -5.15550301	     21.80864816	     -0.46955137	     -5.54627098	      0.01848455	      0.02731026	     -0.00084213
      0.05000000	      4.32838862	      0.87951054	     -3.02539982	      0.70519158	      1.04898976	     -0.19930915	     -8.95550320	    -13.43465390	     -3.72633851	     -5.10329775	     -0.08906935	      3.30452597	     15.06072134	      0.33238234	     -8.45815669	     -9.79101246	     -9.41007078	     -1.66588871	     -0.02907524	      2.06014085	      7.19340171	      0.64115062	     -3.43326364	     -2.78093628	      3.38297896	      0.06777166	      0.01185044	     -0.00786659	    -10.99052859	    -10.62302569	     15.56409609	     -0.02421978	     -0.03886891	     -0.01802975	     26.15580067	      4.67778136	      4.86708906	     -4.74275263	     -6.68202097	    -12.30266449	     14.61795918	     -0.00995003	     -0.04511695	      0.01737765	     28.35533448	      6.72281244	      5.34072140	     -5.15550301	     21.80864816	     -0.46955137	     -5.54627098	      0.01848455	      0.02731026	     -0.00084213
      0.06000000	      4.32532445	      0.87993666	     -3.02549152	      0.70531333	      1.04898293	     -0.19925513	     -8.95883118	    -13.43189662	     -3.72765418	     -5.10167459	     -0.08904102	      3.30455007	     15.06086029	      0.33242293	     -8.46003408	     -9.79124286	     -9.41150583	     -1.66548959	     -0.02906828	      2.06066717	      7.19366419	      0.64118314	     -3.43285788	     -2.78241981	      3.38308583	      0.06780123	      0.01178822	     -0.00784923	    -10.99035479	    -10.62392179	     15.56519698	     -0.02420521	     -0.03887700	     -0.01792386	     26.15497636	      4.67813029	      4.86676474	     -4.74343283	     -6.68025158	    -12.30350495	     14.61886426	     -0.00992243	     -0.04520444	      0.01730694	     28.35486856	      6.72333362	      5.34043976	     -5.15624414	     21.80814126	     -0.46984993	     -5.54621763	      0.01846192	      0.02732726	     -0.00085480
